<svg width="239" height="239" viewBox="0 0 239 239" fill="none" xmlns="http://www.w3.org/2000/svg">
<rect width="239" height="239" rx="57" fill="#00BA8F"/>
<path d="M84.16 62.756C81.168 62.756 78.572 61.744 76.372 59.72C74.26 57.696 73.204 55.276 73.204 52.46C73.204 49.644 74.26 47.224 76.372 45.2C78.572 43.176 81.168 42.164 84.16 42.164C87.152 42.164 89.704 43.176 91.816 45.2C93.928 47.224 94.984 49.644 94.984 52.46C94.984 55.276 93.928 57.696 91.816 59.72C89.704 61.744 87.152 62.756 84.16 62.756ZM72.808 70.28H95.38V131H72.808V70.28ZM156.6 91.268C162.584 91.972 166.852 93.996 169.404 97.34C171.956 100.596 173.232 104.556 173.232 109.22C173.232 112.124 172.792 114.896 171.912 117.536C171.032 120.088 169.976 122.288 168.744 124.136C167.512 125.896 166.456 127.04 165.576 127.568C162.056 129.856 151.32 131 133.368 131H107.76V55.76H138.78C145.82 55.76 151.496 56.156 155.808 56.948C160.208 57.652 163.772 59.324 166.5 61.964C169.228 64.516 170.592 68.432 170.592 73.712C170.592 78.288 169.448 81.984 167.16 84.8C164.96 87.616 161.44 89.552 156.6 90.608V91.268ZM146.04 71.732C145.16 70.852 144.104 70.324 142.872 70.148C141.728 69.884 139.88 69.752 137.328 69.752C134.776 69.752 132.84 69.796 131.52 69.884V85.988H132.84C133.28 85.988 135.128 85.988 138.384 85.988C141.64 85.988 143.796 85.768 144.852 85.328C145.644 84.976 146.348 84.052 146.964 82.556C147.668 81.06 148.02 79.432 148.02 77.672C148.02 75.032 147.36 73.052 146.04 71.732ZM148.284 115.82C148.9 115.292 149.384 114.324 149.736 112.916C150.176 111.42 150.396 109.924 150.396 108.428C150.396 106.58 150.132 104.864 149.604 103.28C149.164 101.608 148.548 100.42 147.756 99.716C146.964 98.924 145.82 98.396 144.324 98.132C142.916 97.868 140.496 97.736 137.064 97.736C134.864 97.736 133.016 97.78 131.52 97.868V117.008C135.656 117.096 139.352 117.052 142.608 116.876C145.864 116.612 147.756 116.26 148.284 115.82Z" fill="white"/>
<path d="M72.34 154.873C73.564 155.017 74.437 155.431 74.959 156.115C75.481 156.781 75.742 157.591 75.742 158.545C75.742 159.139 75.652 159.706 75.472 160.246C75.292 160.768 75.076 161.218 74.824 161.596C74.572 161.956 74.356 162.19 74.176 162.298C73.456 162.766 71.26 163 67.588 163H62.35V147.61H68.695C70.135 147.61 71.296 147.691 72.178 147.853C73.078 147.997 73.807 148.339 74.365 148.879C74.923 149.401 75.202 150.202 75.202 151.282C75.202 152.218 74.968 152.974 74.5 153.55C74.05 154.126 73.33 154.522 72.34 154.738V154.873ZM70.18 150.877C70 150.697 69.784 150.589 69.532 150.553C69.298 150.499 68.92 150.472 68.398 150.472C67.876 150.472 67.48 150.481 67.21 150.499V153.793H67.48C67.57 153.793 67.948 153.793 68.614 153.793C69.28 153.793 69.721 153.748 69.937 153.658C70.099 153.586 70.243 153.397 70.369 153.091C70.513 152.785 70.585 152.452 70.585 152.092C70.585 151.552 70.45 151.147 70.18 150.877ZM70.639 159.895C70.765 159.787 70.864 159.589 70.936 159.301C71.026 158.995 71.071 158.689 71.071 158.383C71.071 158.005 71.017 157.654 70.909 157.33C70.819 156.988 70.693 156.745 70.531 156.601C70.369 156.439 70.135 156.331 69.829 156.277C69.541 156.223 69.046 156.196 68.344 156.196C67.894 156.196 67.516 156.205 67.21 156.223V160.138C68.056 160.156 68.812 160.147 69.478 160.111C70.144 160.057 70.531 159.985 70.639 159.895ZM77.6398 147.61H88.8448V150.85H82.4998V153.658H87.8458V156.574H82.4998V159.706H88.8178V163H77.6398V147.61ZM102.632 162.487C101.966 162.775 101.192 162.982 100.31 163.108C99.4279 163.234 98.6089 163.297 97.8529 163.297C95.4049 163.297 93.4879 162.658 92.1019 161.38C90.7159 160.102 90.0229 158.14 90.0229 155.494C90.0229 152.794 90.7519 150.778 92.2099 149.446C93.6679 148.096 95.7199 147.421 98.3659 147.421C99.6259 147.421 100.94 147.592 102.308 147.934C102.308 148.294 102.272 148.834 102.2 149.554C102.128 150.256 102.056 150.751 101.984 151.039H100.283C99.0409 151.039 98.0599 151.066 97.3399 151.12C96.6379 151.156 96.2149 151.237 96.0709 151.363C95.8009 151.615 95.5939 152.128 95.4499 152.902C95.3059 153.658 95.2339 154.387 95.2339 155.089C95.2339 156.313 95.3869 157.258 95.6929 157.924C95.9989 158.572 96.3859 159.004 96.8539 159.22C97.3039 159.436 98.0509 159.544 99.0949 159.544C99.9229 159.544 101.003 159.472 102.335 159.328L102.632 162.487ZM104.433 147.61H109.32V153.253H113.505V147.61H118.392V163H113.505V156.358H109.32V163H104.433V147.61ZM130.032 159.625H125.55L124.74 163H119.772L124.74 147.61H131.085L135.837 163H130.842L130.032 159.625ZM127.764 150.931L126.171 156.628H129.384L127.872 150.931H127.764ZM157.025 163H152.489L152.138 154.522C152.084 152.848 152.021 151.579 151.949 150.715H151.868C151.652 151.399 151.4 152.461 151.112 153.901L150.977 154.576L149.114 163H144.578L143.012 155.413L142.742 154.063C142.364 152.389 142.103 151.273 141.959 150.715H141.878C141.806 151.615 141.743 153.082 141.689 155.116C141.671 155.242 141.662 155.44 141.662 155.71L141.419 163H136.856L137.504 147.61H145.226L146.549 154.252L146.873 156.034C147.017 155.476 147.152 154.855 147.278 154.171L148.52 147.61H156.404L157.025 163ZM159.273 147.61H170.478V150.85H164.133V153.658H169.479V156.574H164.133V159.706H170.451V163H159.273V147.61ZM172.484 147.61H177.344V159.436H183.635V163H172.484V147.61Z" fill="white"/>
<line x1="41" y1="140.5" x2="205" y2="140.5" stroke="white" stroke-width="3"/>
<path d="M186.876 163.112C186.493 163.112 186.176 162.986 185.924 162.734C185.681 162.482 185.56 162.141 185.56 161.712C185.56 161.339 185.686 161.026 185.938 160.774C186.199 160.513 186.526 160.382 186.918 160.382C187.291 160.382 187.604 160.513 187.856 160.774C188.108 161.026 188.234 161.339 188.234 161.712C188.234 162.141 188.108 162.482 187.856 162.734C187.613 162.986 187.287 163.112 186.876 163.112ZM194.793 162.804C194.037 163.056 193.192 163.182 192.259 163.182C191.213 163.182 190.429 162.921 189.907 162.398C189.393 161.866 189.137 161.04 189.137 159.92C189.137 159.369 189.211 158.828 189.361 158.296C189.51 157.755 189.669 157.391 189.837 157.204C190.033 156.989 190.415 156.807 190.985 156.658C191.563 156.509 192.161 156.434 192.777 156.434C193.421 156.434 194.069 156.49 194.723 156.602C194.704 156.835 194.671 157.111 194.625 157.428C194.587 157.736 194.545 158.011 194.499 158.254C193.92 158.217 193.374 158.198 192.861 158.198C192.357 158.198 192.035 158.226 191.895 158.282C191.82 158.31 191.75 158.501 191.685 158.856C191.629 159.211 191.601 159.542 191.601 159.85C191.601 160.261 191.657 160.578 191.769 160.802C191.89 161.017 192.077 161.166 192.329 161.25C192.581 161.334 192.921 161.376 193.351 161.376C193.537 161.376 193.948 161.357 194.583 161.32L194.793 162.804ZM198.703 163.182C197.583 163.182 196.743 162.921 196.183 162.398C195.633 161.866 195.357 161.031 195.357 159.892C195.357 159.267 195.413 158.721 195.525 158.254C195.647 157.778 195.791 157.447 195.959 157.26C196.174 157.017 196.566 156.817 197.135 156.658C197.714 156.499 198.255 156.42 198.759 156.42C199.963 156.42 200.822 156.677 201.335 157.19C201.849 157.703 202.105 158.525 202.105 159.654C202.105 160.867 201.83 161.759 201.279 162.328C200.729 162.897 199.87 163.182 198.703 163.182ZM198.745 161.544C199.109 161.544 199.347 161.418 199.459 161.166C199.571 160.905 199.627 160.447 199.627 159.794C199.627 159.337 199.604 158.987 199.557 158.744C199.511 158.492 199.422 158.31 199.291 158.198C199.17 158.077 198.979 158.016 198.717 158.016C198.344 158.016 198.129 158.049 198.073 158.114C197.999 158.179 197.938 158.385 197.891 158.73C197.845 159.075 197.821 159.435 197.821 159.808C197.821 160.443 197.882 160.891 198.003 161.152C198.134 161.413 198.381 161.544 198.745 161.544ZM213.085 157.008C213.235 157.232 213.309 158.1 213.309 159.612V163H210.915V159.85V159.094C210.915 158.749 210.883 158.543 210.817 158.478C210.743 158.403 210.584 158.366 210.341 158.366L210.173 158.38C209.884 158.399 209.609 158.464 209.347 158.576C209.357 158.772 209.361 159.117 209.361 159.612V163H206.967V159.85V159.01C206.967 158.721 206.935 158.543 206.869 158.478C206.795 158.403 206.636 158.366 206.393 158.366L206.225 158.38C205.964 158.389 205.693 158.45 205.413 158.562V163H203.019V156.56H204.965L205.217 157.61C205.525 157.199 205.88 156.901 206.281 156.714C206.683 156.518 207.089 156.42 207.499 156.42C207.845 156.42 208.171 156.471 208.479 156.574C208.797 156.677 209.016 156.821 209.137 157.008C209.193 157.092 209.24 157.246 209.277 157.47C209.576 157.106 209.917 156.84 210.299 156.672C210.682 156.504 211.065 156.42 211.447 156.42C211.793 156.42 212.119 156.471 212.427 156.574C212.745 156.677 212.964 156.821 213.085 157.008Z" fill="white"/>
<path d="M30.536 163H27.512L26.084 156.56H28.534L29.164 161.348H29.206L29.92 156.56H32.51L33.266 161.334H33.322L33.91 156.56H36.374L34.946 163H31.908L31.236 159.108H31.194L30.536 163ZM40.995 163H37.971L36.543 156.56H38.993L39.623 161.348H39.665L40.379 156.56H42.969L43.725 161.334H43.781L44.369 156.56H46.833L45.405 163H42.367L41.695 159.108H41.653L40.995 163ZM51.454 163H48.43L47.002 156.56H49.452L50.082 161.348H50.124L50.838 156.56H53.428L54.184 161.334H54.24L54.828 156.56H57.292L55.864 163H52.826L52.154 159.108H52.112L51.454 163ZM59.253 163.112C58.8703 163.112 58.553 162.986 58.301 162.734C58.0583 162.482 57.937 162.141 57.937 161.712C57.937 161.339 58.063 161.026 58.315 160.774C58.5763 160.513 58.903 160.382 59.295 160.382C59.6683 160.382 59.981 160.513 60.233 160.774C60.485 161.026 60.611 161.339 60.611 161.712C60.611 162.141 60.485 162.482 60.233 162.734C59.9903 162.986 59.6636 163.112 59.253 163.112Z" fill="white"/>
</svg>
