<svg width="179" height="166" viewBox="0 0 179 166" fill="none" xmlns="http://www.w3.org/2000/svg">
<path d="M24.49 67.8079C14.9906 66.8735 8.33817 57.6172 5 50.9408L15.4411 5H165.793L174.146 50.9408C169.205 63.0172 163.16 67.2475 156.744 67.5989M24.49 67.8079C29.5166 68.3023 35.3403 66.4667 41.8919 60.6858C51.5 74.5 70.4309 81.8465 87.1366 60.6858C100 82 126 75.5 136.558 60.6858C143.147 64.2158 150.142 67.9606 156.744 67.5989M24.49 67.8079V150.479C24.258 153.96 25.6038 160.92 32.8429 160.92C40.0821 160.92 111.963 160.92 146.999 160.92C150.479 160.224 157.301 157.162 156.744 150.479C156.187 143.797 156.512 92.4414 156.744 67.5989" stroke="white" stroke-width="9"/>
<g opacity="0.9">
<mask id="path-2-inside-1_14_7" fill="white">
<rect x="64.1662" y="101.45" width="50.1173" height="64.0387" rx="6"/>
</mask>
<rect x="64.1662" y="101.45" width="50.1173" height="64.0387" rx="6" stroke="white" stroke-width="18" mask="url(#path-2-inside-1_14_7)"/>
</g>
</svg>
